<svg xmlns="http://www.w3.org/2000/svg" viewBox="0 0 64 64" fill="none">
  <rect x="8" y="8" width="52" height="52" rx="15" fill="#0b1020"/>
  <rect x="4" y="4" width="52" height="52" rx="15" fill="#ffd23f" stroke="#0b1020" stroke-width="3"/>
  <path d="M15 16h-4v32h4M49 16h4v32h-4" stroke="#0b1020" stroke-width="3" stroke-linecap="round" stroke-linejoin="round"/>
  <path d="M21 19v26M32 19v26M43 19v26M19 23h26M19 32h26M19 41h26" stroke="#0b1020" stroke-width="2.4" stroke-linecap="round"/>
  <path d="M21 23l22 18M43 23 21 41" stroke="#ff6b4a" stroke-width="4" stroke-linecap="round"/>
  <circle cx="28" cy="31" r="1.6" fill="#0b1020"/><circle cx="36" cy="31" r="1.6" fill="#0b1020"/>
  <path d="M29 37q3 2.5 6 0" stroke="#0b1020" stroke-width="1.8" stroke-linecap="round"/>
  <circle cx="46" cy="45" r="4.2" fill="#5b8cff" stroke="#0b1020" stroke-width="2"/><circle cx="46" cy="45" r="1.2" fill="#fffdf5"/>
</svg>
